# xmcd
#
# Track frame offsets:
# 150
# 17271
# 31663
# 47642
# 65090
# 83290
# 103107
# 122493
# 137657
# 156563
# 172841
# 188249
# 207084
# 221879
# 239251
# 252736
# 269014
# 288650
# 306698
# 325541
#
# Disc length: 4581 seconds
#
#
# Revision: 1
# Processed by: cddbd v1.5.2PL0 Copyright (c) Steve Scherf et al.
# Submitted via: FreeRIP 2.945 
#
DISCID=2411e314
DTITLE=Boleros - As 20 mais de Boleros em Ingles
DYEAR=1900
DGENRE=Other
TTITLE0=Nothing's gonna change my love for you
TTITLE1=Stuck you
TTITLE2=Lost in your eyes
TTITLE3=Skyline pigeon
TTITLE4=Lover why
TTITLE5=Forever by your side
TTITLE6=Must have been love
TTITLE7=Broken wings
TTITLE8=This the end
TTITLE9=Unchained melody
TTITLE10=If you don't know, me by now
TTITLE11=Take my breath a way
TTITLE12=Yes
TTITLE13=Love hurst
TTITLE14=Give me your heart tonight
TTITLE15=Coming around again
TTITLE16=I just called to say a love you
TTITLE17=Say you, say me
TTITLE18=Immortality
TTITLE19=Heaven
EXTD=
EXTT0=
EXTT1=
EXTT2=
EXTT3=
EXTT4=
EXTT5=
EXTT6=
EXTT7=
EXTT8=
EXTT9=
EXTT10=
EXTT11=
EXTT12=
EXTT13=
EXTT14=
EXTT15=
EXTT16=
EXTT17=
EXTT18=
EXTT19=
PLAYORDER=
